<svg id="Шар_1" data-name="Шар 1" xmlns="http://www.w3.org/2000/svg" viewBox="0 0 1920 1920"><defs><style>.cls-1{fill:#fff;}</style></defs><title>icon-2</title><rect class="cls-1" x="1589.9" y="109.86" width="50.48" height="691.53" transform="translate(2101.74 2061.7) rotate(-122.61)"/><path class="cls-1" d="M602.56,385.55C309.5,573,223.91,962.61,411.4,1255.68l1061.29-679C1285.2,283.65,895.63,198.06,602.56,385.55Zm-30.39,687.74L417.9,1138.8a565.41,565.41,0,0,1-45.09-207l167.54-4.58A399.21,399.21,0,0,0,572.17,1073.29Zm-23.41-239.6-164-34.41a565.66,565.66,0,0,1,81.32-195.67l140.1,92A399,399,0,0,0,548.76,833.69ZM796.68,541.56a399,399,0,0,0-126.9,79.09L556.22,497.37A565.75,565.75,0,0,1,736.05,385.3Zm85.89-22.79L857.77,353a565.85,565.85,0,0,1,211.73,8.18L1032,524.55A399.19,399.19,0,0,0,882.57,518.77ZM1120.4,556.1l74.39-150.19a565.78,565.78,0,0,1,169.07,127.72l-124.15,112.6A399.3,399.3,0,0,0,1120.4,556.1Z"/><rect class="cls-1" x="279.62" y="1087.13" width="50.48" height="691.53" transform="translate(1347.59 403.9) rotate(57.39)"/><path class="cls-1" d="M1317.44,1503c293.06-187.49,378.65-577.06,191.16-870.13l-1061.29,679C634.8,1604.87,1024.37,1690.46,1317.44,1503Zm30.39-687.73,154.27-65.52a565.46,565.46,0,0,1,45.09,207l-167.54,4.58A399.12,399.12,0,0,0,1347.83,815.24Zm23.41,239.59,164,34.42A565.61,565.61,0,0,1,1454,1284.91l-140.1-92A399.15,399.15,0,0,0,1371.24,1054.83ZM1123.32,1347a399.19,399.19,0,0,0,126.9-79.08l113.56,123.27A565.75,565.75,0,0,1,1184,1503.22Zm-85.89,22.79,24.8,165.76a565.64,565.64,0,0,1-211.73-8.18L888,1364A399.19,399.19,0,0,0,1037.43,1369.75ZM799.6,1332.42l-74.39,150.2A566,566,0,0,1,556.14,1354.9l124.15-112.6A399.26,399.26,0,0,0,799.6,1332.42Z"/></svg>