<svg id="Шар_1" data-name="Шар 1" xmlns="http://www.w3.org/2000/svg" xmlns:xlink="http://www.w3.org/1999/xlink" viewBox="0 0 1920 1920"><defs><style>.cls-1{fill:url(#Градієнт_без_назви_33);}.cls-2{fill:url(#Градієнт_без_назви_33-2);}</style><linearGradient id="Градієнт_без_назви_33" x1="246.48" y1="710.81" x2="1830.59" y2="710.81" gradientUnits="userSpaceOnUse"><stop offset="0" stop-color="#fee41d"/><stop offset="1" stop-color="#ee2970"/></linearGradient><linearGradient id="Градієнт_без_назви_33-2" x1="89.41" y1="1211.19" x2="1673.52" y2="1211.19" xlink:href="#Градієнт_без_назви_33"/></defs><title>icon-3</title><path class="cls-1" d="M1296.7,572.86h0L1830.59,39l-39-39L1380.11,411.51C1109.88,181,703.42,193.45,447.93,448.93c-268.6,268.61-268.6,704.09,0,972.7Zm-212.45-241a617.75,617.75,0,0,1,210.22,96.59l-106,149.17a435.91,435.91,0,0,0-148.34-68.17ZM940.17,313.56l-1.74,183A435.78,435.78,0,0,0,777.75,525.4l-65.29-171A617.85,617.85,0,0,1,940.17,313.56ZM590.22,417.4,691.49,569.82a435.93,435.93,0,0,0-116.8,114.07L424.71,579A617.72,617.72,0,0,1,590.22,417.4ZM353.44,713.46l171,65.29a435.78,435.78,0,0,0-28.85,160.68l-183,1.74A617.85,617.85,0,0,1,353.44,713.46Zm-22.55,371.79,177.59-44.14a435.91,435.91,0,0,0,68.17,148.34l-149.17,106A617.75,617.75,0,0,1,330.89,1085.25Z"/><path class="cls-2" d="M623.3,1349.14h0L89.41,1883l39,39,411.51-411.51c270.23,230.53,676.69,218.06,932.18-37.42,268.6-268.61,268.6-704.09,0-972.7Zm212.45,241a617.75,617.75,0,0,1-210.22-96.59l106-149.17a435.91,435.91,0,0,0,148.34,68.17Zm144.08,18.33,1.74-183a435.78,435.78,0,0,0,160.68-28.85l65.29,171A617.85,617.85,0,0,1,979.83,1608.44Zm349.95-103.84-101.27-152.42a435.93,435.93,0,0,0,116.8-114.07l150,104.85A617.72,617.72,0,0,1,1329.78,1504.6Zm236.78-296.06-171-65.29a435.78,435.78,0,0,0,28.85-160.68l183-1.74A617.85,617.85,0,0,1,1566.56,1208.54Zm22.55-371.79-177.59,44.14a435.91,435.91,0,0,0-68.17-148.34l149.17-106A617.75,617.75,0,0,1,1589.11,836.75Z"/></svg>