<svg id="Шар_1" data-name="Шар 1" xmlns="http://www.w3.org/2000/svg" viewBox="0 0 1920 1920"><defs><style>.cls-1{fill:#fff;}</style></defs><title>icon-1</title><path class="cls-1" d="M1354.07,1635H308.57C140.88,1635,4.46,1498.81,4.46,1331.4V900c0-77.19,30.11-150.9,84.77-207.54,55.08-57.08,127.91-89.29,205.07-90.7a295.21,295.21,0,0,1,199.05,71.7A455.8,455.8,0,0,1,627.24,413.35C718.62,325,843.47,278.5,969.66,285.73c240.14,13.79,428.25,212.84,428.25,453.17V941.2c38,7.09,70.11,23.87,95.93,50.14,31.09,31.63,46.24,71.21,53.6,103.11l194.18-55.86c.66-.19,1.32-.36,2-.52a139.55,139.55,0,0,1,171.94,135.62v227.86a139.55,139.55,0,0,1-171.94,135.63l-196.32-47.06c-7.1,27.9-21.22,61.75-49.22,90.28C1462.5,1616.64,1414.06,1635,1354.07,1635ZM299.79,689.33l-3.9,0C185.44,691.38,92.13,787.81,92.13,900V1331.4c0,119.07,97.09,215.94,216.44,215.94h1045.5c36.07,0,62.71-9.27,81.42-28.34,30.77-31.35,31.23-81.44,31.22-81.93a43.84,43.84,0,0,1,54-43.45L1764,1451.91a51.89,51.89,0,0,0,63.91-50.36V1173.69a51.88,51.88,0,0,0-63.14-50.53l-242.08,69.64a43.82,43.82,0,0,1-55.94-42.88c0-.39,0-61.5-35.72-97.46-18.36-18.49-43.52-27.47-76.92-27.47a43.84,43.84,0,0,1-43.83-43.84V738.9c0-193.91-151.81-354.52-345.6-365.64C862.78,367.42,762,405,688.17,476.38c-73.53,71.08-114.33,170-111.94,271.26a367.11,367.11,0,0,0,9.71,75.68,43.83,43.83,0,0,1-85.09,21.09C477,752.62,394.69,689.33,299.79,689.33Z"/><path class="cls-1" d="M270.35,1486.27c-20.57-8.36-37.29-20.57-52.72-34.07A129.1,129.1,0,0,1,189.52,1415c-16.88-33.58,8-73.09,45.61-72.54l28.15.41v-.64s0,23.78,10.28,39.21q19.29,28.93,71.36,28.93c57.86,0,83.58-14.79,83.58-39.21,0-25.72-32.79-41.79-86.15-47.58-32.79-3.86-61.71-10.93-84.86-20.57-21.86-9-39.86-21.22-53.36-36-19.28-21.22-28.93-46.29-28.93-74.58,0-39.21,15.43-65.57,28.93-81,29.58-33.43,77.15-50.78,142.72-50.78,86.15,0,128.58,37.93,149.15,69.43q1.61,2.51,3.08,5.06c19.13,33.19-5.45,74.65-43.76,74.65H431.07v.65s.64-19.29-9.64-32.79c-12.86-18-38.58-28.93-74.58-28.93-37.29,0-80.36,9.64-80.36,37.93,0,27,28.29,43.07,85.5,49.5,63.65,7.07,110.58,27,138.87,59.79,18.64,21.86,28.28,47.57,28.28,75.22,0,13.5,0,47.57-27.64,78.43-14.14,16.07-33.43,28.28-57.22,36.64-24.43,8.36-54,12.21-89.36,12.21C317.28,1498.48,292.21,1494.63,270.35,1486.27Z"/><path class="cls-1" d="M769.22,1300V1447.7a50.15,50.15,0,0,1-50.15,50.14h0a50.14,50.14,0,0,1-50.14-50.14V1300a50.15,50.15,0,0,0-11.58-32l-87.89-105.73C542.3,1129.5,565.54,1080,608,1080h1.33A50.17,50.17,0,0,1,648,1098.13l71.74,86.63,71.11-86.49a50.14,50.14,0,0,1,38.73-18.3h1c42.53,0,65.75,49.62,38.5,82.27l-88.14,105.64A50.16,50.16,0,0,0,769.22,1300Z"/><path class="cls-1" d="M1377.25,1130.89V1447.7a50.14,50.14,0,0,1-50.14,50.14h0A50.14,50.14,0,0,1,1277,1447.7V1222.93l-96.81,61.69a50.14,50.14,0,0,1-54.35-.29l-93.14-60.76V1447.7a50.14,50.14,0,0,1-50.14,50.14h0a50.14,50.14,0,0,1-50.14-50.14V1131.18c0-39.73,44-63.68,77.36-42.11L1127,1164.88a50.15,50.15,0,0,0,54.33.07L1300,1088.71C1333.37,1067.26,1377.25,1091.22,1377.25,1130.89Z"/></svg>