<svg id="Шар_1" data-name="Шар 1" xmlns="http://www.w3.org/2000/svg" viewBox="0 0 1380 1780"><defs><style>.cls-1{fill:#bfbfbf;}.cls-2{fill:#e0e0e0;}</style></defs><title>notloadprofile2</title><rect class="cls-1" width="1380" height="1780"/><rect class="cls-2" x="968.86" y="520.87" width="22.35" height="306.15" transform="translate(940.48 1862.68) rotate(-122.61)"/><path class="cls-2" d="M531.76,642.92c-129.74,83-167.63,255.47-84.63,385.21L917,727.55C834,597.8,661.5,559.91,531.76,642.92ZM518.3,947.38l-68.29,29a250.55,250.55,0,0,1-20-91.66l74.18-2A176.72,176.72,0,0,0,518.3,947.38ZM507.94,841.31l-72.62-15.23a250.42,250.42,0,0,1,36-86.63l62,40.73A176.66,176.66,0,0,0,507.94,841.31ZM617.7,712a176.79,176.79,0,0,0-56.18,35l-50.28-54.57a250.54,250.54,0,0,1,79.61-49.61Zm38-10.09-11-73.38a250.5,250.5,0,0,1,93.74,3.62l-16.61,72.32A177,177,0,0,0,655.72,701.89ZM761,718.42l32.93-66.49a250.34,250.34,0,0,1,74.85,56.54l-55,49.85A176.7,176.7,0,0,0,761,718.42Z"/><rect class="cls-2" x="388.79" y="953.51" width="22.35" height="306.15" transform="translate(1116.57 173.32) rotate(57.39)"/><path class="cls-2" d="M848.24,1137.61c129.74-83,167.63-255.47,84.63-385.22L463,1053C546,1182.72,718.5,1220.61,848.24,1137.61ZM861.7,833.14l68.29-29a250.46,250.46,0,0,1,20,91.65l-74.18,2A176.81,176.81,0,0,0,861.7,833.14Zm10.36,106.07,72.62,15.24a250.46,250.46,0,0,1-36,86.62l-62-40.73A176.66,176.66,0,0,0,872.06,939.21ZM762.3,1068.54a176.62,176.62,0,0,0,56.18-35l50.28,54.57a250.56,250.56,0,0,1-79.61,49.62Zm-38,10.09,11,73.38a250.5,250.5,0,0,1-93.74-3.62l16.61-72.32A176.53,176.53,0,0,0,724.28,1078.63ZM619,1062.1l-32.93,66.5a250.37,250.37,0,0,1-74.85-56.55l55-49.85A176.54,176.54,0,0,0,619,1062.1Z"/></svg>