<svg id="Шар_1" data-name="Шар 1" xmlns="http://www.w3.org/2000/svg" xmlns:xlink="http://www.w3.org/1999/xlink" viewBox="0 0 1166.67 1750"><defs><style>.cls-1{fill:url(#Градієнт_без_назви_22);}.cls-2,.cls-3{fill:#fff;}.cls-3{font-size:200px;font-family:Etna, Etna;}</style><radialGradient id="Градієнт_без_назви_22" cx="583.33" cy="875" r="787.45" gradientTransform="translate(90.46) scale(0.84 1)" gradientUnits="userSpaceOnUse"><stop offset="0" stop-color="#a8a8a8"/><stop offset="0.15" stop-color="#a0a0a0"/><stop offset="0.67" stop-color="#898989"/><stop offset="1" stop-color="gray"/></radialGradient></defs><title>notloadposter</title><rect class="cls-1" x="0.79" y="0.46" width="1165.08" height="1749.08"/><path class="cls-2" d="M1165.41.92V1749.08H1.25V.92H1165.41m.92-.92H.33V1750h1166V0Z"/><path class="cls-2" d="M739,644a170.17,170.17,0,0,1-35.86,53.45l-61.89,61.89V794.5H531.51V732.61l76-71c31.64-32.35,47.11-55.56,47.11-76.66,0-33.75-28.13-57.66-71.73-57.66-42.89,0-71,27.42-71,57.66H413.37c0-23.21,4.93-30.94,13.36-52a167.49,167.49,0,0,1,36.57-54.15c15.47-15.47,33.76-27.42,53.45-36.56,21.09-8.45,43.6-13.37,66.1-13.37,23.21,0,45,4.92,66.11,13.37,20.39,9.14,38.68,21.09,54.15,36.56A165.53,165.53,0,0,1,739,532.89c9.15,21.1,13.36,28.83,13.36,52C752.33,607.44,748.12,622.91,739,644ZM531.51,848.65H641.22v109.7H531.51Z"/><text class="cls-3" transform="translate(230.14 1375.6)">POSTER</text></svg>