<svg id="Шар_1" data-name="Шар 1" xmlns="http://www.w3.org/2000/svg" xmlns:xlink="http://www.w3.org/1999/xlink" viewBox="0 0 1380 1750"><defs><style>.cls-1{fill:url(#Градієнт_без_назви_22);}.cls-2{fill:#fff;}</style><radialGradient id="Градієнт_без_назви_22" cx="690" cy="875" r="787.45" gradientUnits="userSpaceOnUse"><stop offset="0" stop-color="#a8a8a8"/><stop offset="0.15" stop-color="#a0a0a0"/><stop offset="0.67" stop-color="#898989"/><stop offset="1" stop-color="gray"/></radialGradient></defs><title>notloadprofile</title><rect class="cls-1" x="0.5" y="0.5" width="1379" height="1749"/><path class="cls-2" d="M1379,1V1749H1V1H1379m1-1H0V1750H1380V0Z"/><path class="cls-2" d="M913.46,808.2a248.34,248.34,0,0,1-52.36,78l-90.36,90.36v51.33H610.56V937.57l110.9-103.7c46.2-47.24,68.79-81.12,68.79-111.92,0-49.29-41.07-84.2-104.73-84.2-62.63,0-103.7,40-103.7,84.2H438.06c0-33.89,7.2-45.18,19.52-76A244.47,244.47,0,0,1,511,566.9c22.59-22.59,49.28-40,78-53.39C619.8,501.19,652.66,494,685.52,494c33.88,0,65.71,7.19,96.52,19.51,29.78,13.35,56.47,30.8,79.06,53.39A241.62,241.62,0,0,1,913.46,646c13.35,30.81,19.51,42.1,19.51,76C933,754.8,926.81,777.39,913.46,808.2ZM610.56,1107H770.74v160.17H610.56Z"/></svg>