<svg id="Шар_1" data-name="Шар 1" xmlns="http://www.w3.org/2000/svg" viewBox="0 0 1380 1780"><defs><style>.cls-1{fill:#bfbfbf;}.cls-2{fill:#d3d3d3;}</style></defs><title>notloadprofile3</title><rect class="cls-1" width="1380" height="1780"/><rect class="cls-2" x="968.3" y="522.19" width="22.28" height="305.22" transform="translate(938.84 1863.5) rotate(-122.61)"/><path class="cls-2" d="M532.52,643.87c-129.35,82.75-167.13,254.7-84.38,384.05L916.57,728.25C833.82,598.89,661.87,561.12,532.52,643.87ZM519.1,947.42,451,976.34A249.68,249.68,0,0,1,431.11,885l73.95-2A176.14,176.14,0,0,0,519.1,947.42ZM508.77,841.67l-72.4-15.19a249.65,249.65,0,0,1,35.89-86.36l61.84,40.6A176.08,176.08,0,0,0,508.77,841.67ZM618.19,712.73a176.34,176.34,0,0,0-56,34.9l-50.12-54.4a249.82,249.82,0,0,1,79.37-49.47Zm37.92-10.06-11-73.16a249.6,249.6,0,0,1,93.45,3.61l-16.56,72.1A176,176,0,0,0,656.11,702.67Zm105,16.47,32.83-66.29a249.74,249.74,0,0,1,74.62,56.38l-54.79,49.7A176.26,176.26,0,0,0,761.08,719.14Z"/><rect class="cls-2" x="389.98" y="953.53" width="22.28" height="305.22" transform="translate(1116.73 172.15) rotate(57.39)"/><path class="cls-2" d="M848,1137.07c129.36-82.75,167.13-254.7,84.38-384L464,1052.69C546.74,1182.05,718.69,1219.82,848,1137.07Zm13.42-303.55,68.09-28.92A249.68,249.68,0,0,1,949.45,896l-74,2A176.14,176.14,0,0,0,861.46,833.52Zm10.33,105.75,72.4,15.19a249.46,249.46,0,0,1-35.89,86.36l-61.84-40.6A176.08,176.08,0,0,0,871.79,939.27ZM762.37,1068.21a176.23,176.23,0,0,0,56-34.9l50.12,54.4a249.82,249.82,0,0,1-79.37,49.47Zm-37.92,10.06,10.95,73.16a249.6,249.6,0,0,1-93.45-3.61l16.56-72.1A176.06,176.06,0,0,0,724.45,1078.27Zm-105-16.47-32.84,66.29A249.74,249.74,0,0,1,512,1071.71l54.8-49.7A176,176,0,0,0,619.49,1061.8Z"/></svg>